<svg display="none" xmlns="http://www.w3.org/2000/svg">

  <symbol id="arrowRight" viewBox="0 0 14 13">
    <path d="M8.73365 1.66846L13.0285 6.94958L8.73365 12.2307M1 6.94958H12.9083" stroke="white" stroke-width="1.5"
          stroke-miterlimit="10" stroke-linecap="round" stroke-linejoin="round"/>
  </symbol>
  <symbol id="activeChecked" viewBox="0 0 20 20">
    <path
      d="M10.0393 19.0576C15.0051 19.0576 19.0681 14.9946 19.0681 10.0288C19.0681 5.06295 15.0051 1 10.0393 1C5.07345 1 1.0105 5.06295 1.0105 10.0288C1.0105 14.9946 5.07345 19.0576 10.0393 19.0576Z"
        stroke-width="1.5" stroke-linecap="round" stroke-linejoin="round"/>
    <path d="M6.202 10.0285L8.75714 12.5837L13.8765 7.47339" stroke="#00A0B1" stroke-width="1.5" stroke-linecap="round"
          stroke-linejoin="round"/>
  </symbol>
  <symbol id="notChecked" viewBox="0 0 20 20">
    <path
      d="M10.0393 19.7338C15.0051 19.7338 19.0681 15.6709 19.0681 10.705C19.0681 5.73922 15.0051 1.67627 10.0393 1.67627C5.07345 1.67627 1.0105 5.73922 1.0105 10.705C1.0105 15.6709 5.07345 19.7338 10.0393 19.7338Z"
      stroke="#A2A1A1" stroke-opacity="0.9" stroke-width="1.5" stroke-linecap="round" stroke-linejoin="round"/>
    <path d="M6.202 10.7046L8.75714 13.2597L13.8765 8.14941" stroke="#A2A1A1" stroke-opacity="0.9" stroke-width="1.5"
          stroke-linecap="round" stroke-linejoin="round"/>
  </symbol>

</svg>