<svg width="11" height="12" viewBox="0 0 11 12" fill="none" xmlns="http://www.w3.org/2000/svg">
<path d="M5.31242 6.71633C5.51733 6.71633 5.72024 6.67597 5.90955 6.59755C6.09886 6.51914 6.27088 6.4042 6.41577 6.25931C6.56067 6.11441 6.6756 5.9424 6.75402 5.75309C6.83243 5.56377 6.87279 5.36087 6.87279 5.15596C6.87279 4.95104 6.83243 4.74814 6.75402 4.55883C6.6756 4.36951 6.56067 4.1975 6.41577 4.0526C6.27088 3.90771 6.09886 3.79277 5.90955 3.71436C5.72024 3.63594 5.51733 3.59558 5.31242 3.59558C4.89858 3.59558 4.5017 3.75998 4.20907 4.0526C3.91644 4.34523 3.75204 4.74212 3.75204 5.15596C3.75204 5.56979 3.91644 5.96668 4.20907 6.25931C4.5017 6.55194 4.89858 6.71633 5.31242 6.71633Z" stroke="#00A0B1"/>
<path d="M1.12141 4.24578C2.10664 -0.0852597 8.52319 -0.0802584 9.50342 4.25078C10.0786 6.79139 8.49818 8.94191 7.11285 10.2722C6.62877 10.7391 5.98245 11 5.30991 11C4.63738 11 3.99106 10.7391 3.50698 10.2722C2.12665 8.94191 0.546269 6.78639 1.12141 4.24578Z" stroke="#00A0B1"/>
</svg>
